<svg id="Layer_1" xmlns="http://www.w3.org/2000/svg" width="2498.42" height="2498.42"><path fill="#D34A47" d="M1553.378 2425.804l23.971-399.426 66.188-112.985s-150.646 61.625-402.85 61.625c-252.208 0-400.569-60.486-400.569-60.486l74.179 123.251 26.241 388.021c0 41.599 137.186 75.317 306.422 75.317 169.227 0 306.418-33.719 306.418-75.317m-75.614-1865.261l50.313-198.874 278.626-293.18-73.435-62.549-294.982 312.31-58.419 237.602a3914.105 3914.105 0 0 0-131.948-2.194c-310.671 0-562.521 35.406-562.521 79.072 0 43.67 251.851 79.072 562.521 79.072 310.667 0 562.514-35.402 562.514-79.072-.001-32.156-136.591-59.833-332.669-72.187"/><path fill="#FFF" d="M1448.497 671.917s-10.896 2.442-42.95 2.579c-32.063.133-54.828-.208-63.896-8.468-2.438-2.217-3.771-6.62-3.759-9.602.026-5.677 4.055-9.02 9.188-11.113l4.854 7.614c-2.111.729-3.317 1.591-3.322 2.509-.018 4.312 32.783 7.262 57.871 6.943 25.093-.309 55.411-2.376 55.438-6.625 0-1.285-2.292-2.495-6.281-3.449l4.832-7.563c6.502 2.019 12.178 5.919 12.165 12.668-.063 11.477-14.666 13.221-24.14 14.507"/><path fill="#D34A47" d="M1806.156 69.067c7.005-8.092-3.627-28.79-23.746-46.224-20.128-17.425-42.124-24.995-49.143-16.903-7.01 8.092 3.626 28.79 23.754 46.215 20.12 17.429 42.125 25.009 49.135 16.912m-266.179 1381.101c-6.604-63.534 138.967-155.548 101.607-158.494-80.424 4.598-120.45 94.249-160.914 188.145-14.828 34.413-65.565 181.153-98.843 163.088-33.269-18.057 43.132-138.724 64.545-210.385-24.708 18.118-115.322 88.521-138.675 22.589-37.544 31.886-117.77 49.16-108.719-34.599-19.974 35.38-64.802 84.775-118.608 64.249-70.663-26.947 40.944-252.04 68.696-240.685 27.757 11.352-5.601 62.628-14.337 82.54-19.214 43.82-41.409 98.909-26.581 110.186 25.401 19.319 94.527-73.088 96.064-75.119 12.928-17.081 49.761-128.825 79.447-115.994s-74.046 160.371-35.261 189.651c7.823 5.91 39.828-3.645 59.298-24.709 12.598-13.626 8.265-43.807 50.256-143.948 41.992-100.137 79.418-224.846 108.216-215.345 28.799 9.497 5.062 73.503-5.27 97.363-48.48 111.987-132.314 297.001-92.778 282.995 39.537-14.002 60.124-14.823 98.839-60.128 38.715-45.306 36.931-119.93 62.733-118.344 25.813 1.59 21.48 25.517 15.222 43.736 25.397-29.063 120.389-90.273 143.321-29.651 27.164 71.771-135.905 175.442-95.247 170.155 39.642-5.155 103.864-45.831 131.285-82.814l75.477-678.56s-75.949 62.854-559.139 62.854c-483.193 0-551.285-61.546-551.285-61.546l64.259 619.363c34.107-96.938 115.102-293.017 242.769-286.436 58.074 2.995 135.601 114.819 69.192 118.609-28.11 1.599-30.963-55.817-64.25-64.249-24.019-6.087-57.46 13.44-79.072 34.598-43.101 42.182-135.799 208.608-123.551 291.581 15.605 105.782 145.972-36.758 168.03-79.076 15.534-29.811 26.028-118.132 60.004-108.865 33.979 9.267-2.964 100.415-27.593 181.003-27.668 90.49-42.213 185.944-76.891 174.964-34.682-10.972 21.812-127.791 19.767-148.26-32.598 30.075-92.65 106.215-169.479 68.529l39.907 384.62s106.064 83.804 425.574 83.804 429.501-82.496 429.501-82.496l49.554-445.481c-40.542 39.479-168.855 109.585-177.07 30.562"/></svg>