<?xml version="1.0" encoding="UTF-8" standalone="no"?>
<!-- Created with Inkscape (http://www.inkscape.org/) -->

<svg
   version="1.1"
   id="svg25"
   width="64"
   height="64"
   viewBox="0 0 63.999999 64"
   xmlns="http://www.w3.org/2000/svg"
   xmlns:svg="http://www.w3.org/2000/svg">
  <defs
     id="defs29" />
  <g
     id="layer1"
     transform="translate(-221.15932,-214.8016)">
    <path
       style="fill:#000000;stroke-width:0.27195"
       d="m 221.35834,276.58639 c 0.48169,-5.36164 2.24501,-9.0575 5.92551,-12.41969 2.55823,-2.33698 5.47335,-4.00821 11.55922,-6.62688 6.60151,-2.84054 7.3445,-3.37117 7.70948,-5.50601 0.17907,-1.04746 0.1554,-1.08622 -1.06099,-1.73739 -4.56974,-2.44632 -8.28054,-7.67272 -9.28522,-13.07756 -0.50103,-2.69539 -0.22188,-7.36407 0.58598,-9.80034 2.20329,-6.64442 7.78516,-11.52781 14.24705,-12.46426 7.8469,-1.13718 15.73707,4.18369 18.4829,12.46426 0.80786,2.43627 1.08701,7.10495 0.58598,9.80034 -0.99345,5.34442 -4.74197,10.70854 -9.01863,12.90563 -1.26967,0.65228 -1.26967,0.65228 -1.07046,2.06964 0.14538,1.03441 0.4095,1.61019 0.97754,2.13101 0.42809,0.3925 3.14457,1.74444 6.03663,3.00432 6.58255,2.86758 9.42278,4.48588 11.99981,6.83724 3.51295,3.20532 5.4718,7.27434 5.91799,12.29311 l 0.20819,2.34179 h -32 -32 z"
       id="path193" />
  </g>
</svg>
